<svg width="30.000000" height="30.000000" viewBox="0 0 30 30" fill="none" xmlns="http://www.w3.org/2000/svg" xmlns:xlink="http://www.w3.org/1999/xlink">
	<desc>
			Created with Pixso.
	</desc>
	<defs>
		<clipPath id="clip1_298">
			<rect id="002-sedan 1" rx="-0.500000" width="29.000000" height="29.000000" transform="translate(0.500000 0.500000)" fill="white" fill-opacity="0"/>
		</clipPath>
	</defs>
	<rect id="002-sedan 1" rx="-0.500000" width="29.000000" height="29.000000" transform="translate(0.500000 0.500000)" fill="#FFFFFF" fill-opacity="0"/>
	<g clip-path="url(#clip1_298)">
		<path id="Vector" d="M5.62 16.25C3.9 16.25 2.5 17.65 2.5 19.37C2.5 21.09 3.9 22.5 5.62 22.5C7.34 22.5 8.74 21.09 8.74 19.37C8.74 17.65 7.34 16.25 5.62 16.25ZM5.62 21.25C4.59 21.25 3.75 20.4 3.75 19.37C3.75 18.34 4.59 17.5 5.62 17.5C6.65 17.5 7.5 18.34 7.5 19.37C7.5 20.4 6.65 21.25 5.62 21.25Z" fill="#000000" fill-opacity="1.000000" fill-rule="nonzero"/>
		<path id="Vector" d="M24.37 16.25C22.65 16.25 21.25 17.65 21.25 19.37C21.25 21.09 22.65 22.5 24.37 22.5C26.09 22.5 27.49 21.09 27.49 19.37C27.49 17.65 26.09 16.25 24.37 16.25ZM24.37 21.25C23.34 21.25 22.5 20.4 22.5 19.37C22.5 18.34 23.34 17.5 24.37 17.5C25.4 17.5 26.25 18.34 26.25 19.37C26.25 20.4 25.4 21.25 24.37 21.25Z" fill="#000000" fill-opacity="1.000000" fill-rule="nonzero"/>
		<path id="Vector" d="M26.25 12.5L25.19 12.5C24.8 12.5 24.42 12.36 24.12 12.12L19.2 8.18C18.64 7.74 17.95 7.5 17.24 7.5L8.21 7.5C7.16 7.5 6.19 8.02 5.61 8.89L4.54 10.48C4.22 10.96 3.69 11.25 3.12 11.25C1.4 11.25 0 12.65 0 14.37L0 16.87C0 18.59 1.4 20 3.12 20C3.46 20 3.75 19.71 3.75 19.37C3.75 19.03 3.46 18.75 3.12 18.75C2.09 18.75 1.25 17.9 1.25 16.87L1.25 14.37C1.25 13.34 2.09 12.5 3.12 12.5C4.11 12.5 5.03 12 5.58 11.18L6.65 9.58C7 9.06 7.58 8.74 8.21 8.74L17.24 8.74C17.67 8.74 18.08 8.89 18.42 9.16L23.34 13.09C23.86 13.51 24.52 13.74 25.19 13.74L26.25 13.74C28.08 13.74 28.75 15.61 28.75 16.87C28.75 18.1 27.8 18.74 26.87 18.74C26.53 18.74 26.25 19.02 26.25 19.37C26.25 19.71 26.53 19.99 26.87 19.99C28.65 20 30 18.65 30 16.87C30 14.75 28.68 12.5 26.25 12.5Z" fill="#000000" fill-opacity="1.000000" fill-rule="nonzero"/>
		<path id="Vector" d="M21.87 18.75L8.12 18.75C7.78 18.75 7.5 19.03 7.5 19.37C7.5 19.71 7.78 20 8.12 20L21.87 20C22.22 20 22.5 19.71 22.5 19.37C22.5 19.03 22.22 18.75 21.87 18.75Z" fill="#000000" fill-opacity="1.000000" fill-rule="nonzero"/>
		<path id="Vector" d="M20.62 12.5L15 12.5L15 10.62C15 10.28 14.72 9.99 14.37 9.99C14.03 9.99 13.75 10.28 13.75 10.62L13.75 13.12C13.75 13.47 14.03 13.75 14.37 13.75L20.62 13.75C20.97 13.75 21.25 13.47 21.25 13.12C21.25 12.78 20.97 12.5 20.62 12.5Z" fill="#000000" fill-opacity="1.000000" fill-rule="nonzero"/>
		<path id="Vector" d="M11.87 12.5L7.88 12.5L8.68 10.9C8.83 10.59 8.71 10.22 8.4 10.06C8.09 9.91 7.72 10.03 7.56 10.34L6.31 12.84C6.21 13.03 6.22 13.27 6.34 13.45C6.45 13.63 6.65 13.75 6.87 13.75L11.87 13.75C12.22 13.75 12.5 13.47 12.5 13.12C12.5 12.78 12.22 12.5 11.87 12.5Z" fill="#000000" fill-opacity="1.000000" fill-rule="nonzero"/>
		<path id="Vector" d="M16.87 15L15.62 15C15.28 15 15 15.28 15 15.62C15 15.97 15.28 16.25 15.62 16.25L16.87 16.25C17.21 16.25 17.5 15.97 17.5 15.62C17.5 15.28 17.21 15 16.87 15Z" fill="#000000" fill-opacity="1.000000" fill-rule="nonzero"/>
	</g>
</svg>
