<svg width="30.000000" height="30.000000" viewBox="0 0 30 30" fill="none" xmlns="http://www.w3.org/2000/svg" xmlns:xlink="http://www.w3.org/1999/xlink">
	<desc>
			Created with Pixso.
	</desc>
	<defs>
		<clipPath id="clip1_277">
			<rect id="001-delivery-truck 1" rx="-0.500000" width="29.000000" height="29.000000" transform="translate(0.500000 0.500000)" fill="white" fill-opacity="0"/>
		</clipPath>
	</defs>
	<rect id="001-delivery-truck 1" rx="-0.500000" width="29.000000" height="29.000000" transform="translate(0.500000 0.500000)" fill="#FFFFFF" fill-opacity="0"/>
	<g clip-path="url(#clip1_277)">
		<path id="Vector" d="M24.52 19.72C23.79 19.72 23.09 20.01 22.57 20.53C22.04 21.05 21.75 21.74 21.75 22.47C21.75 23.21 22.04 23.89 22.57 24.41C23.1 24.93 23.79 25.22 24.52 25.22C26.02 25.22 27.25 23.99 27.25 22.47C27.25 20.96 26.02 19.72 24.52 19.72ZM24.52 24C23.68 24 22.97 23.3 22.97 22.47C22.97 21.64 23.68 20.94 24.52 20.94C25.35 20.94 26.02 21.63 26.02 22.47C26.02 23.32 25.35 24 24.52 24ZM25.23 10.57C25.12 10.46 24.97 10.41 24.82 10.41L21.69 10.41C21.35 10.41 21.08 10.68 21.08 11.02L21.08 16.03C21.08 16.36 21.35 16.64 21.69 16.64L26.66 16.64C27 16.64 27.27 16.36 27.27 16.03L27.27 12.67C27.27 12.5 27.2 12.34 27.07 12.22L25.23 10.57ZM26.05 15.42L22.3 15.42L22.3 11.62L24.58 11.62L26.05 12.94L26.05 15.42ZM9.6 19.72C8.87 19.72 8.17 20.01 7.65 20.53C7.12 21.05 6.83 21.74 6.83 22.47C6.83 23.21 7.12 23.89 7.65 24.41C8.18 24.93 8.87 25.22 9.6 25.22C11.11 25.22 12.33 23.99 12.33 22.47C12.33 20.96 11.11 19.72 9.6 19.72ZM9.6 24C8.76 24 8.05 23.3 8.05 22.47C8.05 21.64 8.76 20.94 9.6 20.94C10.43 20.94 11.11 21.63 11.11 22.47C11.11 23.32 10.43 24 9.6 24ZM5.53 20.47L4.3 20.47L4.3 18.85C4.3 18.51 4.03 18.24 3.69 18.24C3.35 18.24 3.08 18.51 3.08 18.85L3.08 21.09C3.08 21.42 3.35 21.7 3.69 21.7L5.53 21.7C5.87 21.7 6.14 21.42 6.14 21.09C6.14 20.75 5.87 20.47 5.53 20.47ZM8.63 17.15C8.63 16.81 8.35 16.53 8.02 16.53L0.61 16.53C0.27 16.53 0 16.81 0 17.15C0 17.48 0.27 17.76 0.61 17.76L8.02 17.76C8.35 17.76 8.63 17.49 8.63 17.15ZM1.85 14.94L9.26 14.98C9.59 14.98 9.87 14.71 9.87 14.38C9.88 14.04 9.6 13.76 9.27 13.76L1.86 13.72C1.85 13.72 1.85 13.72 1.85 13.72C1.52 13.72 1.24 13.99 1.24 14.32C1.24 14.67 1.51 14.94 1.85 14.94ZM3.09 12.17L10.5 12.17C10.84 12.17 11.11 11.89 11.11 11.56C11.11 11.22 10.84 10.94 10.5 10.94L3.09 10.94C2.76 10.94 2.48 11.22 2.48 11.56C2.48 11.89 2.76 12.17 3.09 12.17ZM29.77 11.34L25.4 7.72C25.29 7.63 25.15 7.58 25 7.58L19.86 7.58L19.86 5.38C19.86 5.04 19.59 4.77 19.25 4.77L3.69 4.77C3.35 4.77 3.08 5.04 3.08 5.38L3.08 9.85C3.08 10.19 3.35 10.46 3.69 10.46C4.03 10.46 4.3 10.19 4.3 9.85L4.3 5.99L18.65 5.99L18.65 20.47L13.64 20.47C13.3 20.47 13.02 20.75 13.02 21.09C13.02 21.42 13.3 21.7 13.64 21.7L21.09 21.7C21.43 21.7 21.71 21.42 21.71 21.09C21.71 20.75 21.43 20.47 21.09 20.47L19.87 20.47L19.87 8.8L24.79 8.8L28.77 12.1L28.73 20.46L28.1 20.46C27.76 20.46 27.48 20.74 27.48 21.07C27.48 21.41 27.76 21.68 28.1 21.68L29.34 21.68C29.67 21.68 29.95 21.42 29.95 21.08L30 11.82C29.99 11.64 29.91 11.46 29.77 11.34Z" fill="#000000" fill-opacity="1.000000" fill-rule="nonzero"/>
	</g>
</svg>
