<svg width="30.000000" height="30.000000" viewBox="0 0 30 30" fill="none" xmlns="http://www.w3.org/2000/svg" xmlns:xlink="http://www.w3.org/1999/xlink">
	<desc>
			Created with Pixso.
	</desc>
	<defs>
		<clipPath id="clip1_390">
			<rect id="love 1" rx="-0.500000" width="29.000000" height="29.000000" transform="translate(0.500000 0.500000)" fill="white" fill-opacity="0"/>
		</clipPath>
	</defs>
	<rect id="love 1" rx="-0.500000" width="29.000000" height="29.000000" transform="translate(0.500000 0.500000)" fill="#FFFFFF" fill-opacity="0"/>
	<g clip-path="url(#clip1_390)">
		<path id="Vector" d="M21.87 30C21.74 30 21.61 29.95 21.5 29.87C21.18 29.64 13.75 24.03 13.75 19.53C13.75 17.03 15.78 15 18.28 15C19.71 15 21.02 15.66 21.87 16.75C22.72 15.66 24.03 15 25.46 15C27.96 15 30 17.03 30 19.53C30 24.03 22.56 29.64 22.24 29.87C22.13 29.95 22 30 21.87 30ZM18.28 16.25C16.47 16.25 15 17.72 15 19.53C15 22.57 19.65 26.84 21.87 28.58C24.09 26.84 28.75 22.57 28.75 19.53C28.75 17.72 27.27 16.25 25.46 16.25C24.15 16.25 22.96 17.02 22.44 18.22C22.25 18.67 21.5 18.67 21.3 18.22C20.78 17.02 19.59 16.25 18.28 16.25Z" fill="#000000" fill-opacity="1.000000" fill-rule="nonzero"/>
		<path id="Vector" d="M11.87 25L6.25 25C4.87 25 3.75 23.87 3.75 22.5L3.75 13.75L1.25 13.75C0.54 13.75 0 13.2 0 12.5C0 12.14 0.15 11.8 0.4 11.57L12.69 0.16C12.93 -0.06 13.31 -0.06 13.54 0.16L17.5 3.82L17.5 1.87C17.5 1.52 17.78 1.24 18.12 1.24L21.87 1.24C22.22 1.24 22.5 1.52 22.5 1.87L22.5 8.46L25.85 11.57C26.1 11.81 26.11 12.2 25.88 12.46C25.64 12.71 25.25 12.73 24.99 12.49L21.44 9.19C21.32 9.07 21.25 8.91 21.25 8.73L21.25 2.49L18.75 2.49L18.75 5.26C18.75 5.51 18.6 5.73 18.37 5.83C18.14 5.93 17.88 5.88 17.7 5.71L13.12 1.47L1.25 12.49L4.37 12.5C4.71 12.5 5 12.78 5 13.12L5 22.5C5 23.19 5.56 23.75 6.25 23.75L11.87 23.75C12.22 23.75 12.5 24.03 12.5 24.37C12.5 24.72 12.22 25 11.87 25Z" fill="#000000" fill-opacity="1.000000" fill-rule="nonzero"/>
	</g>
</svg>
