<svg width="27.000000" height="26.999969" viewBox="0 0 27 27" fill="none" xmlns="http://www.w3.org/2000/svg" xmlns:xlink="http://www.w3.org/1999/xlink">
	<desc>
			Created with Pixso.
	</desc>
	<defs/>
	<path id="Vector" d="M26.99 6.65C26.96 6.36 26.78 6.11 26.51 5.98L13.85 0.07C13.63 -0.03 13.36 -0.03 13.14 0.07L0.48 5.98C0.21 6.11 0.03 6.36 0 6.65C0 6.66 0 6.74 0 6.75L0 21.09C0 21.43 0.21 21.74 0.53 21.87L13.18 26.93C13.28 26.97 13.39 27 13.5 27C13.6 27 13.71 26.97 13.81 26.93L26.46 21.87C26.78 21.74 27 21.43 27 21.09L27 6.75C27 6.74 26.99 6.66 26.99 6.65ZM13.5 1.77L24.03 6.69L19.97 8.31L9.24 3.76L13.5 1.77ZM7.18 4.72L17.75 9.2L13.5 10.9L2.96 6.69L7.18 4.72ZM1.68 7.99L12.65 12.38L12.65 24.91L1.68 20.52L1.68 7.99ZM14.34 24.91L14.34 12.38L25.31 7.99L25.31 20.52L14.34 24.91Z" fill="#0A143A" fill-opacity="1.000000" fill-rule="nonzero"/>
</svg>
