<?xml version="1.0" standalone="no"?>
<!DOCTYPE svg PUBLIC "-//W3C//DTD SVG 20010904//EN"
 "http://www.w3.org/TR/2001/REC-SVG-20010904/DTD/svg10.dtd">
<svg version="1.0" xmlns="http://www.w3.org/2000/svg"
 width="700.000000pt" height="700.000000pt" viewBox="0 0 700.000000 700.000000"
 preserveAspectRatio="xMidYMid meet">
<metadata>
Created by potrace 1.14, written by Peter Selinger 2001-2017
</metadata>
<g transform="translate(0.000000,700.000000) scale(0.100000,-0.100000)"
fill="#000000" stroke="none">
<path d="M3420 6986 c-19 -7 -75 -32 -125 -56 -93 -44 -514 -241 -620 -290
-33 -15 -100 -47 -150 -70 -49 -23 -117 -55 -150 -70 -33 -15 -98 -46 -145
-68 -47 -22 -116 -54 -155 -72 -150 -70 -534 -250 -615 -288 -47 -22 -177 -83
-290 -135 -113 -52 -245 -114 -295 -137 -95 -44 -142 -66 -370 -173 -416 -193
-405 -188 -437 -217 -15 -14 -36 -43 -47 -65 -20 -40 -20 -63 -18 -1962 l2
-1921 30 -43 c17 -24 45 -53 62 -64 17 -12 417 -175 889 -364 473 -188 873
-348 889 -356 17 -7 377 -152 800 -321 688 -276 776 -309 825 -308 49 0 230
70 1710 663 910 364 1666 669 1681 677 39 20 85 80 98 128 9 30 11 547 9 1941
-3 1746 -4 1902 -20 1930 -35 64 -73 93 -188 145 -41 18 -122 56 -180 83 -58
27 -130 60 -160 74 -30 14 -100 47 -155 73 -55 26 -161 75 -235 110 -74 34
-173 80 -220 102 -47 22 -143 67 -215 101 -71 33 -190 88 -264 123 -73 35
-135 64 -137 64 -3 0 -35 15 -279 130 -167 78 -409 192 -485 227 -41 19 -259
121 -485 226 -441 206 -472 216 -555 183z m158 -482 c42 -20 95 -44 117 -54
37 -16 75 -34 295 -137 140 -66 865 -405 925 -433 62 -29 482 -225 615 -287
41 -20 108 -51 147 -69 97 -45 207 -97 296 -138 39 -19 112 -53 161 -75 49
-23 86 -44 83 -48 -3 -3 -73 -32 -154 -64 -81 -33 -157 -63 -168 -68 -11 -5
-175 -71 -364 -146 -366 -145 -354 -142 -436 -105 -61 27 -393 168 -870 370
-236 99 -443 187 -460 194 -16 8 -118 51 -225 96 -107 45 -208 88 -225 95 -71
31 -501 214 -735 312 -58 24 -122 52 -143 62 l-38 17 83 39 c46 21 128 59 183
85 55 27 237 112 405 190 168 78 332 154 365 170 33 16 61 29 63 29 2 1 38
-15 80 -35z m-1416 -854 c242 -103 394 -168 633 -270 50 -21 326 -138 615
-260 289 -122 548 -232 575 -244 28 -12 177 -76 332 -141 155 -65 281 -120
280 -121 -1 -1 -240 -97 -532 -213 -291 -116 -537 -215 -545 -220 -13 -7 -101
21 -185 59 -20 9 -572 230 -1893 757 l-673 268 73 35 c40 19 105 49 143 67 39
18 117 54 175 81 138 65 244 115 480 224 107 50 199 94 204 99 10 9 -3 15 318
-121z m4400 -2345 c0 -889 -4 -1621 -8 -1625 -5 -4 -119 -52 -254 -105 -135
-54 -258 -103 -275 -110 -16 -8 -421 -170 -900 -360 -478 -191 -883 -353 -900
-360 -130 -57 -497 -197 -501 -192 -5 5 -9 2903 -5 3198 1 40 4 47 24 52 16 3
1720 683 1877 749 142 59 936 374 938 372 2 -1 4 -730 4 -1619z m-5182 1246
c498 -199 919 -369 937 -377 17 -7 34 -14 38 -14 5 0 283 -111 350 -140 11 -5
101 -41 200 -80 99 -39 189 -75 200 -80 11 -5 54 -22 95 -38 l75 -29 3 -1622
c1 -1163 -1 -1621 -9 -1621 -6 0 -54 18 -106 40 -53 22 -100 40 -105 40 -4 0
-27 9 -51 19 -23 11 -292 119 -597 241 -703 280 -749 299 -785 315 -16 7 -151
61 -300 120 -148 59 -283 113 -300 120 -16 7 -151 61 -300 120 -148 59 -274
111 -280 117 -10 9 -17 3213 -7 3231 2 5 12 7 21 4 9 -2 423 -167 921 -366z"/>
</g>
</svg>
